<?xml version="1.0" standalone="no"?>
<!DOCTYPE svg PUBLIC "-//W3C//DTD SVG 20010904//EN"
 "http://www.w3.org/TR/2001/REC-SVG-20010904/DTD/svg10.dtd">
<svg version="1.0" xmlns="http://www.w3.org/2000/svg"
 width="700.000000pt" height="700.000000pt" viewBox="0 0 700.000000 700.000000"
 preserveAspectRatio="xMidYMid meet">

<g transform="translate(0.000000,700.000000) scale(0.100000,-0.100000)"
fill="#000000" stroke="none">
<path d="M3468 6755 c-6 -7 -27 -10 -133 -20 -87 -8 -196 -32 -285 -63 -8 -3
-23 -7 -33 -9 -30 -5 -57 -23 -57 -36 0 -8 -3 -8 -9 2 -7 11 -13 11 -37 -2
-16 -9 -55 -26 -86 -38 -31 -12 -54 -27 -51 -32 3 -6 1 -7 -4 -4 -14 9 -86
-27 -76 -38 4 -4 3 -5 -4 -2 -6 4 -26 -5 -44 -20 -18 -16 -29 -22 -25 -15 5 8
-10 1 -33 -14 -24 -16 -40 -33 -37 -40 3 -7 1 -16 -4 -19 -4 -3 -10 0 -12 6
-3 8 -12 7 -31 -6 -15 -9 -24 -22 -20 -28 3 -5 2 -7 -4 -4 -19 12 -198 -137
-187 -155 3 -5 0 -7 -8 -6 -8 2 -12 -5 -10 -17 2 -15 0 -16 -6 -7 -7 10 -25
-4 -70 -54 -34 -37 -58 -72 -55 -77 3 -6 2 -8 -3 -5 -5 3 -14 0 -21 -7 -10
-11 -10 -15 0 -18 7 -3 5 -6 -5 -6 -9 -1 -20 -5 -23 -11 -3 -6 1 -7 12 -4 13
4 12 2 -3 -8 -12 -7 -33 -26 -46 -43 -29 -35 -98 -152 -98 -166 0 -5 -4 -9 -9
-9 -5 0 -12 -7 -15 -16 -3 -8 -2 -12 4 -9 6 3 7 -1 4 -9 -3 -9 -10 -14 -14
-11 -9 6 -23 -33 -20 -55 1 -8 -1 -12 -6 -8 -15 16 -119 -270 -116 -319 1 -13
-2 -23 -6 -23 -5 0 -9 -6 -10 -12 0 -7 -7 -53 -16 -103 -12 -75 -22 -169 -30
-290 -4 -64 29 -369 42 -390 4 -5 7 -12 7 -15 3 -14 28 -127 32 -140 2 -8 5
-17 5 -20 1 -8 38 -103 55 -138 19 -40 9 -54 -43 -58 -39 -4 -272 -38 -346
-52 -26 -5 -50 -7 -54 -3 -4 3 -4 -3 0 -13 5 -16 4 -17 -9 -6 -12 10 -19 10
-27 2 -21 -21 3 -33 97 -47 11 -1 65 -15 120 -30 55 -15 109 -29 120 -30 11
-1 30 -7 42 -13 12 -7 26 -11 30 -11 4 1 22 -3 38 -10 17 -6 55 -21 85 -32 49
-19 131 -57 182 -84 10 -5 18 -13 18 -18 0 -4 -4 -5 -10 -2 -6 3 -7 -1 -4 -9
3 -9 10 -16 15 -16 5 0 9 -6 9 -13 0 -7 25 -39 56 -70 31 -32 53 -61 50 -65
-10 -9 -69 -10 -81 -1 -34 26 -599 58 -669 38 -37 -11 -76 -47 -69 -65 3 -8 0
-14 -7 -14 -6 0 -8 5 -4 11 4 7 1 10 -7 7 -7 -2 -16 -15 -20 -29 -4 -13 -8
-17 -8 -9 -1 9 -17 -2 -43 -30 -23 -25 -35 -37 -28 -27 18 25 7 21 -30 -12
-20 -17 -31 -34 -27 -43 4 -11 -1 -14 -16 -11 -16 2 -39 -13 -83 -54 -33 -32
-78 -73 -100 -91 -21 -18 -33 -30 -26 -27 6 3 12 1 12 -5 0 -7 -7 -9 -16 -6
-16 6 -89 -50 -171 -131 -24 -24 -47 -43 -51 -43 -14 0 -53 -46 -45 -54 4 -4
1 -4 -8 -1 -20 7 -85 -63 -72 -76 12 -12 63 -1 63 13 0 6 7 8 15 4 8 -3 43 4
77 15 35 11 76 21 93 24 16 2 31 5 33 6 11 9 266 45 402 56 146 13 516 6 645
-11 28 -4 64 -9 80 -11 17 -2 50 -6 75 -10 25 -3 59 -8 75 -10 17 -2 66 -11
110 -20 44 -9 88 -14 98 -11 9 2 14 0 11 -6 -3 -5 0 -8 7 -7 8 2 48 -5 89 -15
41 -10 84 -20 95 -22 28 -5 106 -25 130 -34 64 -23 88 -28 102 -23 10 4 14 2
10 -4 -8 -12 38 -27 53 -18 6 4 10 2 10 -4 0 -5 19 -13 43 -17 23 -4 44 -8 47
-9 3 0 14 -6 26 -12 47 -26 216 -84 230 -79 9 3 12 1 9 -4 -11 -18 47 -33 70
-19 18 11 19 11 6 -4 -11 -15 -11 -17 2 -17 8 0 17 -6 20 -12 3 -10 8 -10 21
1 14 12 16 12 10 -3 -4 -9 -3 -16 2 -15 14 2 54 -13 54 -20 0 -3 9 -12 20 -19
17 -10 26 -9 53 4 17 9 41 24 51 33 11 9 16 11 13 4 -4 -6 43 11 104 38 61 27
117 49 125 49 8 0 14 5 14 10 0 6 7 10 16 10 36 0 112 33 123 53 7 12 9 14 7
5 -6 -20 9 -25 19 -7 4 6 13 8 21 5 8 -3 14 -1 14 5 0 6 4 8 8 5 12 -7 112 24
112 35 0 6 5 7 10 4 6 -4 38 2 73 13 34 11 114 32 177 47 63 15 143 35 177 45
34 10 72 16 84 13 12 -4 20 -2 17 3 -4 5 8 10 25 11 75 6 116 11 126 17 6 4
43 9 83 12 40 3 138 11 218 18 181 17 519 12 645 -9 17 -2 64 -7 105 -11 41
-3 79 -9 84 -11 22 -14 76 -20 76 -9 0 8 3 7 8 -1 4 -7 23 -14 42 -16 20 -2
44 -8 55 -14 11 -6 32 -10 48 -9 15 1 27 -1 27 -4 0 -11 107 -40 124 -34 25
10 5 35 -82 106 -42 34 -93 77 -112 95 -38 35 -45 39 -55 23 -3 -5 -12 -10
-18 -10 -7 0 -3 7 7 15 19 14 19 15 -5 34 -13 10 -37 31 -52 45 -15 14 -35 26
-43 26 -8 0 -13 3 -11 8 3 4 -34 39 -80 77 -47 39 -95 79 -107 91 -11 11 -51
44 -88 73 -38 29 -68 57 -68 62 0 5 -5 9 -11 9 -5 0 -7 -5 -3 -12 5 -7 3 -8
-5 -4 -7 5 -10 10 -7 13 6 6 -6 18 -47 50 -26 20 -36 21 -195 18 -206 -5 -313
-14 -329 -27 -9 -7 -13 -7 -13 0 0 5 -9 8 -20 5 -13 -3 -20 0 -20 8 0 15 20
49 20 35 0 -5 7 -3 15 4 8 7 12 17 8 23 -4 6 -1 7 6 3 8 -5 14 0 18 13 3 12
10 21 16 21 6 0 8 2 5 5 -3 3 12 25 33 48 22 22 39 46 39 53 0 6 9 19 20 29
11 10 20 24 20 31 0 7 19 19 43 27 23 8 58 20 77 26 19 7 44 14 55 15 11 2 40
9 65 16 25 7 56 14 70 16 114 19 153 35 134 54 -9 9 -257 52 -301 53 -23 0
-16 26 41 162 7 17 23 71 35 120 12 50 26 106 31 125 40 163 45 469 11 660
-23 129 -30 160 -36 170 -3 5 -8 20 -10 32 -3 13 -11 39 -19 58 -7 19 -20 55
-27 80 -7 25 -26 72 -43 105 -16 33 -30 62 -31 65 -4 22 -80 151 -132 225 -59
84 -69 95 -82 95 -6 0 -11 8 -11 18 0 11 -48 67 -107 126 -131 131 -142 141
-153 141 -5 0 -18 9 -29 20 -59 57 -61 59 -62 44 0 -8 -4 -6 -8 6 -11 26 -216
149 -232 139 -7 -4 -10 -3 -5 4 10 16 -187 103 -213 94 -8 -3 -11 0 -7 6 3 5
-6 12 -22 15 -15 3 -47 13 -72 22 -24 9 -64 21 -87 26 -24 5 -64 14 -90 19
-135 30 -515 55 -535 35z m52 -750 l0 -125 -135 0 -135 0 0 -755 0 -755 -175
0 -175 0 0 755 0 754 -137 3 -138 3 -3 123 -3 122 451 0 450 0 0 -125z m810
119 c0 -7 299 -1713 304 -1736 4 -17 -10 -18 -193 -18 l-198 0 -22 138 c-13
75 -25 147 -28 160 -5 21 -9 22 -129 22 l-123 0 -6 -32 c-3 -18 -12 -78 -20
-133 -9 -55 -18 -112 -21 -127 l-6 -28 -190 0 c-148 0 -189 3 -186 13 3 6 74
402 159 879 l154 868 253 0 c138 0 252 -3 252 -6z m-1669 -1972 c488 -319 799
-799 826 -1277 l6 -110 -68 90 c-441 584 -1080 1017 -1770 1198 l-90 24 145
22 c80 12 285 44 455 71 171 26 328 48 351 49 34 1 57 -10 145 -67z m2343 -2
c251 -38 460 -70 464 -71 4 0 -61 -20 -143 -44 -664 -191 -1278 -616 -1700
-1177 -84 -111 -82 -113 -64 54 48 447 295 847 722 1169 103 77 208 139 237
139 15 0 232 -31 484 -70z m-3189 -520 c397 -26 656 -85 896 -204 186 -93 287
-173 467 -369 113 -123 265 -314 241 -305 -445 182 -820 288 -1230 347 -434
64 -941 52 -1288 -30 -46 -10 -85 -18 -87 -16 -1 1 153 134 342 295 l345 292
77 0 c43 0 149 -5 237 -10z m3826 -63 c83 -69 232 -195 494 -418 92 -78 113
-100 90 -95 -98 25 -292 57 -426 72 -210 22 -636 14 -859 -16 -426 -57 -906
-189 -1293 -355 l-39 -16 28 38 c144 194 352 416 475 506 168 123 365 215 575
268 195 49 500 84 764 88 l105 1 86 -73z m284 -197 c-3 -5 -12 -10 -18 -10 -7
0 -6 4 3 10 19 12 23 12 15 0z m65 -44 c0 -3 -4 -8 -10 -11 -5 -3 -10 -1 -10
4 0 6 5 11 10 11 6 0 10 -2 10 -4z m-4050 -216 c0 -5 -2 -10 -4 -10 -3 0 -8 5
-11 10 -3 6 -1 10 4 10 6 0 11 -4 11 -10z m3217 -12 c-3 -8 -6 -5 -6 6 -1 11
2 17 5 13 3 -3 4 -12 1 -19z m1030 -54 c-3 -3 -12 -4 -19 -1 -8 3 -5 6 6 6 11
1 17 -2 13 -5z m97 -2 c3 -5 -1 -9 -9 -9 -8 0 -12 4 -9 9 3 4 7 8 9 8 2 0 6
-4 9 -8z m-2629 -312 c3 -6 -1 -7 -9 -4 -18 7 -21 14 -7 14 6 0 13 -4 16 -10z"/>
<path d="M4006 5330 c-32 -248 -56 -453 -54 -456 3 -2 57 -3 119 -2 l114 3
-56 443 c-32 243 -59 447 -61 452 -2 6 -30 -192 -62 -440z"/>
<path d="M1460 2789 c-123 -7 -356 -30 -425 -43 -11 -2 -51 -9 -90 -15 -38 -7
-75 -17 -82 -22 -7 -6 -17 -8 -23 -4 -5 3 -10 1 -10 -5 0 -6 -5 -8 -11 -5 -19
12 -99 -18 -99 -37 0 -20 20 -19 110 5 30 8 77 18 104 22 26 4 44 10 38 14 -5
3 19 7 55 9 36 1 70 5 76 9 6 3 22 7 36 8 14 1 94 7 176 13 240 18 563 15 690
-8 28 -5 79 -11 115 -15 36 -3 88 -10 115 -15 28 -5 61 -12 75 -14 68 -13 229
-48 260 -56 19 -5 46 -11 60 -14 14 -3 49 -12 79 -20 30 -8 59 -12 65 -9 6 3
8 2 3 -2 -6 -7 41 -24 113 -40 8 -2 35 -11 60 -20 66 -24 144 -49 155 -50 6
-1 28 -10 50 -19 117 -53 125 -56 125 -44 0 7 5 6 13 -3 6 -9 44 -28 82 -44
39 -16 78 -34 89 -41 10 -7 25 -10 34 -7 10 4 13 2 8 -5 -13 -21 18 -13 94 25
41 20 80 37 85 39 6 1 21 6 35 12 14 5 28 10 33 11 4 0 20 7 36 15 57 30 431
156 462 156 13 0 18 4 13 12 -5 7 -2 9 8 5 14 -5 61 4 108 21 8 3 26 7 40 9
14 2 32 6 40 10 8 3 18 7 23 8 4 2 10 4 15 5 4 1 10 2 14 1 4 0 82 15 174 34
91 19 170 33 174 30 4 -3 21 -1 36 5 16 5 57 11 92 14 34 3 66 7 70 9 10 7
291 18 413 17 102 0 372 -17 434 -26 138 -20 308 -58 406 -89 56 -18 96 -15
84 6 -4 6 -14 8 -22 5 -8 -3 -12 -2 -9 3 10 15 -58 36 -229 70 -55 11 -113 23
-130 26 -153 32 -674 60 -755 41 -14 -3 -65 -8 -115 -10 -49 -2 -101 -7 -115
-10 -14 -4 -47 -8 -75 -10 -74 -5 -207 -26 -227 -37 -9 -5 -35 -9 -58 -9 -23
0 -39 -4 -36 -9 3 -4 -5 -6 -17 -4 -12 2 -49 -3 -82 -12 -33 -10 -68 -17 -77
-17 -10 1 -18 -4 -18 -9 0 -6 -5 -7 -10 -4 -6 4 -25 1 -44 -5 -18 -6 -42 -12
-52 -15 -101 -21 -415 -126 -408 -136 3 -5 -1 -7 -8 -4 -7 3 -35 -3 -63 -14
-150 -56 -166 -64 -160 -79 4 -11 2 -12 -8 -4 -10 8 -20 8 -39 -2 -15 -8 -29
-12 -32 -8 -3 3 -6 0 -6 -7 0 -7 -4 -9 -10 -6 -5 3 -10 1 -10 -5 0 -6 -4 -9
-9 -5 -5 3 -12 1 -16 -5 -4 -6 -24 -9 -45 -8 -21 2 -36 6 -33 11 2 4 -1 8 -6
8 -17 2 -23 4 -84 32 -32 15 -61 27 -66 27 -4 0 -23 8 -42 17 -66 33 -459 165
-559 189 -8 1 -69 16 -135 33 -108 27 -305 64 -395 74 -19 3 -42 7 -50 10 -8
3 -49 8 -90 12 -41 4 -88 8 -105 10 -16 1 -86 5 -155 9 -69 4 -138 8 -155 10
-16 2 -95 -1 -175 -5z m2265 -379 c3 -6 -1 -7 -9 -4 -18 7 -21 14 -7 14 6 0
13 -4 16 -10z"/>
<path d="M673 2658 c-21 -5 -30 -13 -27 -22 7 -17 54 -18 61 0 9 24 -1 31 -34
22z"/>
<path d="M2000 2180 l0 -50 155 0 155 0 0 -385 0 -385 55 0 55 0 0 385 0 385
155 0 155 0 0 50 0 50 -365 0 -365 0 0 -50z"/>
<path d="M3410 2100 l0 -90 -40 0 -40 0 0 -40 c0 -40 0 -40 39 -40 l39 0 4
-222 c3 -202 5 -227 24 -263 30 -59 75 -77 201 -83 l103 -5 0 47 0 46 -85 0
c-78 0 -88 2 -110 25 -25 24 -25 24 -25 240 l0 215 110 0 110 0 0 40 0 40
-110 0 -110 0 0 90 0 90 -55 0 -55 0 0 -90z"/>
<path d="M4047 2016 c-79 -22 -127 -63 -167 -140 -34 -68 -35 -71 -35 -191 0
-120 1 -123 35 -191 42 -82 99 -126 187 -144 159 -33 296 45 342 195 34 109
25 252 -22 340 -22 43 -86 101 -130 120 -54 22 -152 28 -210 11z m150 -87 c76
-28 123 -121 123 -244 0 -118 -42 -205 -117 -244 -28 -14 -108 -14 -136 0 -46
24 -88 74 -102 123 -18 58 -19 174 -4 231 31 112 136 172 236 134z"/>
<path d="M4865 2021 c-50 -12 -92 -39 -124 -78 l-31 -38 0 53 0 52 -50 0 -50
0 0 -325 0 -325 50 0 50 0 0 179 c0 265 18 329 108 372 36 18 56 21 108 16
l64 -5 0 48 c0 41 -3 49 -22 54 -29 7 -64 6 -103 -3z"/>
<path d="M2652 1768 c5 -265 12 -304 66 -361 44 -47 80 -61 157 -61 82 -1 133
22 183 79 l32 36 0 -51 0 -50 50 0 50 0 0 325 0 325 -49 0 -50 0 -3 -227 c-3
-254 -7 -268 -74 -319 -27 -21 -50 -29 -93 -32 -76 -5 -116 15 -142 71 -16 37
-19 68 -19 275 l0 232 -56 0 -56 0 4 -242z"/>
</g>
</svg>
