<svg xmlns="http://www.w3.org/2000/svg" viewBox="0 0 800 600" role="img" aria-label="Lesson cover">
  <defs>
    <linearGradient id="bg" x1="0" y1="0" x2="1" y2="1">
      <stop offset="0" stop-color="#1f9d4c"/>
      <stop offset="0.6" stop-color="#14883b"/>
      <stop offset="1" stop-color="#0d6b2d"/>
    </linearGradient>
    <linearGradient id="page" x1="0" y1="0" x2="0" y2="1">
      <stop offset="0" stop-color="#ffffff"/>
      <stop offset="1" stop-color="#e3f7ea"/>
    </linearGradient>
  </defs>
  <rect width="800" height="600" fill="url(#bg)"/>
  <circle cx="680" cy="90" r="170" fill="#ffffff" opacity="0.08"/>
  <circle cx="90" cy="540" r="210" fill="#ffffff" opacity="0.06"/>
  <circle cx="720" cy="520" r="80" fill="#4ade80" opacity="0.18"/>
  <g transform="translate(400 300)">
    <ellipse cx="0" cy="122" rx="215" ry="16" fill="#052e14" opacity="0.25"/>
    <path d="M-200 -110 Q-100 -140 0 -100 L0 110 Q-100 70 -200 100 Z" fill="url(#page)" stroke-linejoin="round"/>
    <path d="M200 -110 Q100 -140 0 -100 L0 110 Q100 70 200 100 Z" fill="url(#page)" stroke-linejoin="round"/>
    <g fill="none" stroke="#22c55e" stroke-opacity="0.6" stroke-width="7" stroke-linecap="round">
      <path d="M-165 -70 Q-100 -88 -35 -62"/>
      <path d="M-165 -35 Q-100 -53 -35 -27"/>
      <path d="M-165 0 Q-100 -18 -35 8"/>
      <path d="M-165 35 Q-120 23 -80 33"/>
      <path d="M35 -62 Q100 -88 165 -70"/>
      <path d="M35 -27 Q100 -53 165 -35"/>
      <path d="M35 8 Q100 -18 165 0"/>
    </g>
    <path d="M0 -100 L0 110" fill="none" stroke="#14883b" stroke-opacity="0.5" stroke-width="5"/>
    <g transform="translate(150 -150)" fill="#bbf7d0">
      <path d="M0 -26 L7 -7 L26 0 L7 7 L0 26 L-7 7 L-26 0 L-7 -7 Z"/>
      <path transform="translate(42 34) scale(0.5)" d="M0 -26 L7 -7 L26 0 L7 7 L0 26 L-7 7 L-26 0 L-7 -7 Z" opacity="0.7"/>
    </g>
  </g>
</svg>
